<?xml version="1.0" encoding="utf-8"?>
<!-- Generator: Adobe Illustrator 25.2.1, SVG Export Plug-In . SVG Version: 6.00 Build 0)  -->
<svg version="1.1" id="Layer_1" xmlns="http://www.w3.org/2000/svg" xmlns:xlink="http://www.w3.org/1999/xlink" x="0px" y="0px"
	 viewBox="0 0 348.8 110.9" style="enable-background:new 0 0 348.8 110.9;" xml:space="preserve">
<style type="text/css">
	.st0{fill:#214E41;}
</style>
<g id="Layer_2_1_">
	<g id="Artwork">
		<rect x="217.5" y="5.5" class="st0" width="12.2" height="98.3"/>
		<rect x="248.6" y="5.5" class="st0" width="12.2" height="98.3"/>
		<path class="st0" d="M342.9,37.5l-6.1,13.2c-5.6-9.5-15.4-14.9-26.9-14.9c-20.6,0-34.6,15.6-34.6,34.8s14,34.8,34.6,34.8
			c10.9,0,20.3-4.9,26-13.5v11.9h12.9V37.5H342.9z M311.8,98.3c-14.5,0-22.5-11.8-22.5-27.7c0-16.3,8-27.7,22.5-27.7
			c13.3,0,23.2,11.6,23.2,27.7S325.1,98.3,311.8,98.3L311.8,98.3z"/>
		<path class="st0" d="M107.5,42.8c-3.9,3.7-6.9,8.3-8.6,13.4l-6.3-18.8h-5.9v66.3h12.9V78.5c0-9.1,1-16.7,4.7-22.1
			c3.2-4.6,8.7-7.4,15.6-7.4c2.2,0,4.4,0.2,6.6,0.6V36.9c-1.3-0.2-2.6-0.3-3.9-0.3C117,36.7,111.6,38.9,107.5,42.8z"/>
		<path class="st0" d="M166.2,35.8c-20.7,0-35.4,15-35.4,34.8s14.4,34.8,35.3,34.8c7.8,0.1,15.5-2.2,22-6.6
			c5.4-4.1,9.3-9.9,11.1-16.5h-13.3c-2,8.4-7.2,16.1-18.9,16.1c-16.5,0-21.8-12.9-22.1-26.7v-0.2h55.8c0-0.7,0-1.2,0-1.6
			C200.8,50.1,186.7,35.8,166.2,35.8z M166.3,42.8c14.6,0,19.2,11.9,19.6,21.5h-40.6C146.5,52.6,152.5,42.8,166.3,42.8L166.3,42.8z"
			/>
		<path class="st0" d="M44,55.5c13.1-2.7,23.2-9.7,23.2-21.9c0-15-11.3-22.2-28.7-22.2H0v92.5h42.6c15.7,0,28.1-8,28.1-24.9
			C70.7,65,58.9,56.5,44,55.5z M34.1,18.1c12.5,0,19,6.3,19,16.2S46,51.9,33,51.9H14.4V18.1H34.1z M35.8,97H14.4V59.6h19.2
			c13.7,0,22.2,6.7,22.2,18.8C55.8,89,48.7,97,35.8,97z"/>
	</g>
</g>
</svg>
